<svg xmlns="http://www.w3.org/2000/svg" width="200" height="200" viewBox="0 0 200 200" fill="none">
<path d="M 193.9,90.46 C 185.45,84.91 177.49,84.25 171.45,83.79 C 167.92,83.51 165.26,83.81 162.42,83.97 C 175.93,78.98 185.78,67.28 185.78,53.72 C 185.78,38.94 176.02,26.04 158.89,15.57 C 156.39,14.06 154.06,15.96 155.12,19.06 C 158.21,28.29 161.03,37.81 152.09,45.82 C 146.42,51.01 135.09,50.78 127.34,51.27 C 118.66,45.96 110.06,44.09 99.03,44.09 C 88.77,44.09 80.23,46.48 72.21,51.12 C 64.61,50.81 54.88,50.48 48.92,46.99 C 40.15,41.93 40.11,32.94 43.21,20.09 C 44.01,16.81 42.31,14.48 39.53,15.71 C 26.09,24.27 11.99,34.78 11.99,53.8 C 11.99,66.76 21.35,77.72 35.39,83.42 C 36.57,83.82 37.76,84.18 38.96,84.51 C 34.23,84.74 28.16,85.48 21.42,86.21 C 16.87,86.71 12.67,87.67 7.04,90.83 C 4.82,92.06 4.41,94.88 6.02,97.46 C 13.11,107.89 19.63,112.96 32.98,112.77 C 35.2,112.74 36.97,112.34 37.84,112.07 C 35.62,120.81 34.78,128.81 34.78,134.78 C 34.78,154.25 47.73,169.98 73.92,175.1 C 80.74,181.47 89.61,183.78 98.75,183.78 C 108.31,183.78 117.01,180.91 124.27,175.06 C 145.17,170.96 164.52,157.93 164.52,134.61 C 164.52,128.72 162.91,120.76 161.31,112.91 C 163.12,113.39 164.99,113.65 167.01,113.61 C 178.85,113.34 185.28,108.97 193.92,96.91 C 195.43,94.58 196.11,91.89 193.9,90.46 Z" fill="black"/>
<path d="M 36.71,23.03 C 25.31,31.11 17.23,39.21 17.23,53.94 C 17.23,67.02 29.21,77.49 48.63,81.23 L 54.32,69.08 C 57.27,63.69 60.34,60.03 64.82,56.11 C 57.19,55.18 50.16,54.82 44.77,50.45 C 36.09,43.61 35.12,34.91 36.71,23.03 Z" fill="#F9EFC2"/>
<path d="M 34.09,25.19 C 26.01,32.03 24.91,40.02 26.34,49.22 C 28.71,63.82 42.49,66.71 55.41,67.91 L 54.32,69.08 L 48.63,80.12 C 32.91,77.41 17.23,67.81 17.23,53.94 C 17.23,41.81 23.17,33.38 34.09,25.19 Z" fill="#F2CBA7"/>
<path d="M 162.91,23.64 C 174.31,31.72 180.06,41.09 180.06,53.43 C 180.06,66.51 169.01,77.76 150.12,80.91 L 145.23,70.14 C 142.28,64.75 139.18,61.16 134.7,57.24 C 142.33,56.31 149.4,55.21 154.79,50.84 C 163.47,43.99 165.71,36.14 162.91,23.64 Z" fill="#F9EFC2"/>
<path d="M 164.81,25.19 C 172.89,32.03 172.46,40.02 171.03,49.22 C 168.66,61.97 157.72,67.06 144.81,67.91 L 145.23,69.08 L 150.12,80.12 C 165.84,77.41 180.06,66.41 180.06,53.43 C 180.06,41.81 173.92,32.78 164.81,25.19 Z" fill="#F2CBA7"/>
<path d="M 10.31,94.12 C 15.91,91.29 18.44,91.01 21.71,91.42 C 28.71,92.28 35.37,97.3 40.62,99.91 L 38.92,105.91 C 36.18,107.18 34.23,107.46 31.31,107.36 C 21.01,106.99 16.71,102.71 10.31,94.12 Z" fill="#CC9978"/>
<path d="M 29.69,89.51 L 43.52,96.1 L 45.31,88.86 L 29.69,89.51 Z" fill="#3A4850"/>
<path d="M 178.91,90.28 C 182.18,90.69 185.16,92.14 189.19,93.88 C 182.23,103.81 176.98,108.19 165.18,107.62 C 163.12,107.52 160.91,106.81 159.22,106.2 L 157.81,100.41 C 163.87,96.27 170.82,92.06 178.91,90.28 Z" fill="#CC9978"/>
<path d="M 153.63,88.86 L 170.31,88.86 L 156.33,96.91 L 153.63,88.86 Z" fill="#3A4850"/>
<path d="M 99.18,49.71 C 81.41,49.71 67.11,57.91 59.03,72.97 C 50.12,89.71 40.31,113.18 40.31,135.76 C 40.31,152.11 52.89,165.13 71.91,169.29 C 68.64,165.61 68.36,161.77 68.64,158.74 C 69.92,147.06 77.11,137.28 88.77,137.42 C 93.32,137.48 94.48,138.31 99.5,138.31 C 103.91,138.31 105.71,137.42 110.82,137.72 C 121.81,138.38 131.31,149.49 131.31,159.71 C 131.31,163.81 129.76,166.41 128.29,168.72 C 144.28,164.11 158.52,152.38 158.52,135.31 C 158.52,120.61 151.13,97.23 141.03,73.61 C 133.09,57.91 118.01,49.71 99.18,49.71 Z" fill="#F6E6B1"/>
<path d="M 99.03,49.71 C 83.21,50.12 71.23,60.18 65.23,74.71 C 55.27,98.83 51.81,115.18 52.42,158.91 L 51.71,159.32 C 44.23,153.31 40.31,146.72 40.31,135.76 C 40.31,117.06 47.77,96.13 58.32,74.71 C 66.62,58.22 80.78,49.22 99.03,49.71 Z" fill="#F7E8BB"/>
<path d="M 79.03,116.01 C 79.03,110.79 75.41,108.01 71.73,108.01 C 67.11,108.01 64.69,112.31 64.69,116.01 C 64.69,120.61 67.97,123.51 71.42,123.51 C 76.09,123.51 79.03,119.66 79.03,116.01 Z" fill="#1A1616"/>
<path d="M 76.86,113.31 C 76.86,111.22 75.31,110.12 73.75,110.12 C 71.54,110.12 70.62,111.83 70.62,113.31 C 70.62,115.33 72.15,116.21 73.52,116.21 C 75.66,116.21 76.86,114.66 76.86,113.31 Z" fill="#FEFFFE"/>
<path d="M 134.77,116.21 C 134.77,111.22 131.23,108.32 127.66,108.32 C 122.64,108.32 119.58,112.56 119.58,116.21 C 119.58,120.81 123.32,123.51 126.78,123.51 C 131.45,123.51 134.77,119.86 134.77,116.21 Z" fill="#1A1616"/>
<path d="M 132.77,113.51 C 132.77,111.56 131.29,110.53 129.82,110.53 C 127.73,110.53 126.86,112.11 126.86,113.51 C 126.86,115.41 128.32,116.21 129.61,116.21 C 131.62,116.21 132.77,114.76 132.77,113.51 Z" fill="#FEFFFE"/>
<path d="M 110.41,141.42 C 104.23,141.01 103.13,142.28 97.27,141.56 C 93.32,141.08 91.11,140.71 87.77,141.08 C 78.44,142.14 73.32,151.66 73.32,160.26 C 73.32,165.61 77.19,167.72 81.71,166.93 C 88.13,165.76 91.23,164.86 97.41,164.86 C 103.91,164.86 108.09,167.13 115.23,167.96 C 121.73,168.72 126.91,164.86 126.91,159.71 C 126.91,151.73 119.34,141.97 110.41,141.42 Z" fill="#E59D77"/>
<path d="M 71.66,162.72 C 73.81,166.72 76.09,167.13 79.77,166.72 C 86.02,166.01 89.77,164.71 96.13,164.71 C 103.91,164.71 108.92,167.62 115.02,167.62 C 120.04,167.62 124.06,165.31 126.62,161.42 C 124.73,166.72 121.45,169.18 115.02,168.72 C 108.84,168.24 105.43,169.18 98.71,169.18 C 92.77,169.18 88.81,168.81 82.81,169.18 C 77.11,169.59 73.56,167.41 71.66,162.72 Z" fill="#B2725B"/>
<path d="M 84.73,146.69 C 81.35,146.69 80.78,151.66 82.34,153.84 C 84.09,156.45 86.91,155.76 88.92,157.91 C 89.92,158.97 90.91,152.01 87.63,148.33 C 86.71,147.27 85.82,146.69 84.73,146.69 Z" fill="black"/>
<path d="M 114.59,146.72 C 110.27,146.31 107.19,152.21 107.73,157.2 C 107.97,159.22 110.43,156.24 113.71,155.62 C 117.73,154.87 118.84,147.13 114.59,146.72 Z" fill="black"/>
<path d="M 79.92,173.1 C 85.92,177.41 91.62,178.16 98.44,178.16 C 105.92,178.16 111.13,176.62 116.62,173.1 C 111.13,172.41 105.12,170.01 98.31,170.01 C 91.11,170.01 86.81,172.41 79.92,173.1 Z" fill="#F6E6B1"/>
</svg>
