<svg xmlns="http://www.w3.org/2000/svg" width="197" height="251" viewBox="0 0 197 251" fill="none">
<path d="M 40.06,213.08 C 27.41,213.08 16.19,202.28 16.19,189.68 C 16.19,182.28 18.78,176.38 24.09,171.92 L 27.84,176.31 C 23.66,179.84 21.48,184.81 21.48,191.01 C 21.48,200.12 29.71,205.09 36.91,205.09 C 46.09,205.09 52.76,197.18 54.97,192.15 L 60.18,194.53 C 57.32,201.21 49.41,213.08 40.06,213.08 Z" fill="#FBF8D0" stroke="black" stroke-width="4" stroke-linecap="round" stroke-linejoin="round"/>
<path d="M 29.23,147.27 C 26.19,145.29 26.32,148.92 26.64,151.28 C 27.33,156.16 20.81,157.96 17.42,163.77 C 13.07,171.11 15.78,178.71 22.92,180.91 C 30.38,183.31 37.48,176.71 38.79,170.66 C 40.56,162.44 35.22,150.94 29.23,147.27 Z" fill="#262626" stroke="black" stroke-width="5" stroke-linecap="round" stroke-linejoin="round"/>
<path d="M 153.71,166.78 C 150.76,155.79 142.84,146.28 135.72,142.72 L 79.44,148.77 C 66.46,154.96 51.06,169.94 51.44,193.68 C 51.61,203.97 56.35,222.91 59.79,231.37 C 62.38,237.73 67.21,238.12 70.71,237.89 C 76.61,237.52 79.11,232.14 79.33,227.12 L 85.17,224.92 C 87.93,236.06 89.95,246.91 99.97,246.43 C 108.91,246.34 111.99,240.1 113.29,231.06 L 117.92,227.28 L 121.61,228.45 C 123.37,234.94 123.39,239.78 131.18,240.07 C 139.06,240.36 143.81,237.38 146.22,228.79 C 151.26,215.02 158.23,194.02 153.71,166.78 Z" fill="url(#paint0_linear_1_13)" stroke="black" stroke-width="5" stroke-linecap="round" stroke-linejoin="round"/>
<path d="M 93.72,177.21 C 100.41,183.81 105.78,186.31 114.29,185.84 C 128.41,185.04 137.92,180.36 151.19,167.15 L 148.81,161.75 L 131.41,157.04 L 93.72,177.21 Z" fill="#F7E598"/>
<path d="M 117.59,212.38 L 110.01,232.12 C 108.91,234.94 104.37,234.73 100.37,234.91 C 96.47,235.08 94.63,234.84 93.15,231.62 L 87.61,209.28" stroke="black" stroke-width="4" stroke-linecap="round" stroke-linejoin="round"/>
<path d="M 137.89,211.83 C 134.04,217.91 131.02,220.01 128.67,222.11 L 129.39,227.8 C 132.46,229.18 137.89,228.93 144.27,227.71" stroke="black" stroke-width="4" stroke-linecap="round" stroke-linejoin="round"/>
<path d="M 68.79,209.81 C 73.41,216.55 78.17,218.61 84.98,220.51" stroke="black" stroke-width="4" stroke-linecap="round" stroke-linejoin="round"/>
<path d="M 129.82,36.54 C 127.09,35.89 129.06,40.06 129.76,45.96 C 130.31,50.76 130.14,55.17 127.75,58.46 L 148.72,57.13 C 148.03,48.49 141.11,39.34 129.82,36.54 Z" fill="#FCEFAA" stroke="black" stroke-width="6" stroke-linecap="round" stroke-linejoin="round"/>
<path d="M 169.66,110.02 C 162.83,103.71 154.76,86.04 143.89,74.78 C 139.77,70.46 132.82,71.18 125.91,74.98 C 107.61,84.97 92.17,92.09 65.35,99.89 C 60.41,101.89 59.41,107.11 61.74,110.38 C 64.66,114.66 61.31,128.27 61.31,128.27 C 63.73,151.42 74.91,174.75 106.07,175.19 C 130.87,175.19 153.48,160.21 164.78,147.78 C 176.12,135.47 181.92,122.21 169.66,110.02 Z" fill="url(#paint1_linear_1_13)" stroke="black" stroke-width="5" stroke-linecap="round" stroke-linejoin="round"/>
<path d="M 156.09,89.85 C 158.95,94.08 161.18,93.09 164.78,92.09 C 173.85,89.39 183.81,80.11 185.59,68.12 C 186.01,65.37 182.07,65.11 177.71,65.94 C 170.74,67.32 160.12,73.41 153.79,76.11 C 150.17,77.64 152.41,84.44 156.09,89.85 Z" fill="url(#paint2_linear_1_13)" stroke="black" stroke-width="5" stroke-linecap="round" stroke-linejoin="round"/>
<path d="M 154.18,79.98 C 160.38,78.41 168.89,70.71 173.52,67.99 C 168.07,67.23 159.72,68.19 151.91,72.15 C 150.41,73.38 152.12,79.71 154.18,79.98 Z" fill="#333333" stroke="black" stroke-width="2" stroke-linecap="round" stroke-linejoin="round"/>
<path d="M 189.45,59.69 C 186.28,56.33 166.72,57.18 159.63,57.39 C 129.41,58.31 91.73,67.15 64.16,82.19 C 59.16,84.97 55.91,84.07 52.02,81.11 C 48.24,78.24 47.06,76.24 45.72,70.08 C 44.91,66.25 40.71,66.06 38.27,70.12 C 32.81,78.75 32.51,88.31 38.92,98.18 C 30.41,104.88 15.93,114.72 9.39,123.04 C 3.68,129.88 5.77,131.71 15.61,131.71 L 21.22,131.29 C 28.21,136.07 36.22,138.76 43.88,137.38 C 52.82,135.68 57.97,128.88 61.18,121.03 L 60.96,110.18 L 63.18,104.71 C 89.23,97.34 105.08,91.04 124.16,81.11 C 133.1,76.47 138.95,74.16 144.31,72.78 C 157.06,69.22 167.92,63.07 179.48,60.97 C 185.58,59.83 190.96,62.06 189.45,59.69 Z" fill="url(#paint3_linear_1_13)" stroke="black" stroke-width="5" stroke-linecap="round" stroke-linejoin="round"/>
<path d="M 12.65,122.12 L 29.71,117.01 L 18.29,129.11 L 15.61,129.73 C 11.71,129.73 6.03,128.88 8.47,125.96 C 9.65,124.47 11.13,123.31 12.65,122.12 Z" fill="#2B315E" stroke="black" stroke-width="2" stroke-linecap="round" stroke-linejoin="round"/>
<path d="M 36.91,101.11 L 43.76,108.41 L 32.9,112.76 L 15.06,118.32 C 21.1,112.42 29.11,105.86 36.91,101.11 Z" fill="#21498E" stroke="black" stroke-width="2" stroke-linecap="round" stroke-linejoin="round"/>
<path d="M 28.81,125.01 C 35.14,122.75 37.51,123.91 43.35,123.91 C 50.81,123.91 54.82,121.69 60.29,116.59 L 58.11,123.04 C 54.94,129.4 50.81,135.26 42.31,136.42 C 35.98,137.27 30.61,135.06 24.77,131.29 L 28.81,125.01 Z" fill="url(#paint4_linear_1_13)" stroke="black" stroke-width="4" stroke-linecap="round" stroke-linejoin="round"/>
<path d="M 62.82,86.69 C 53.37,86.16 45.16,81.07 41.06,70.08 C 39.88,67.68 37.02,72.78 35.51,78.84 C 33.49,87.92 37.89,98.77 45.69,104.36 C 49.72,107.32 54.82,106.86 57.21,106.43 C 63.67,105.27 66.28,97.16 65.11,90.61 C 64.78,88.21 64.81,86.83 62.82,86.69 Z" fill="#F8ECAB" stroke="black" stroke-width="4" stroke-linecap="round" stroke-linejoin="round"/>
<path d="M 187.72,60.08 C 184.98,57.71 171.86,57.26 166.23,57.71 L 160.38,58.13 C 167.72,58.98 178.71,59.83 186.01,62.2 C 188.08,62.91 189.06,61.26 187.72,60.08 Z" fill="#2B315E" stroke="black" stroke-width="4" stroke-linecap="round" stroke-linejoin="round"/>
<path d="M 90.33,18.84 C 77.06,8.71 67.07,5.08 58.56,5.51 C 45.81,6.13 29.71,19.48 21.81,29.04 C 16.22,35.88 10.11,45.16 12.48,47.74 C 13.99,49.34 17.29,47.13 20.46,45.29 C 28.36,40.72 34.91,38.18 43.96,35.61 C 47.29,47.33 49.13,59.09 49.91,71.63 C 50.21,76.81 50.05,79.18 51.67,81.01 C 53.89,83.69 58.89,84.61 62.38,84.44 C 66.9,84.16 67.12,85.89 67.61,88.81 C 68.42,93.43 67.32,96.96 66.14,101.11 C 85.81,95.71 97.82,91.21 109.11,85.93 C 121.98,79.66 132.67,73.93 148.11,68.68 L 144.81,62.2 C 137.01,57.92 110.59,33.99 90.33,18.84 Z" fill="url(#paint5_linear_1_13)" stroke="black" stroke-width="3" stroke-linecap="round" stroke-linejoin="round"/>
<path d="M 26.19,28.08 L 29.97,23.06 L 32.19,22.08 L 32.78,26.9 L 36.08,29.11 L 30.61,30.95 L 27.76,33.91 L 26.19,28.08 Z" fill="#F4CD63" stroke="black" stroke-width="1.2" stroke-linecap="round" stroke-linejoin="round"/>
<path d="M 47.16,37.23 L 50.46,29.38 L 54.5,34.91 L 60.96,35.33 L 57.66,40.8 L 59.38,46.85 L 52.47,46.1 L 50.03,47.94 L 47.16,37.23 Z" fill="#F4CD63" stroke="black" stroke-width="1.2" stroke-linecap="round" stroke-linejoin="round"/>
<path d="M 64.16,17.61 L 68.92,15.39 L 69.51,9.2 L 77.41,12.66 L 79.63,20.03 L 71.73,20.95 L 70.55,25.27 L 67.69,18.84 L 64.16,17.61 Z" fill="#F4CD63" stroke="black" stroke-width="1.2" stroke-linecap="round" stroke-linejoin="round"/>
<path d="M 106.21,49.96 L 111.68,47.33 L 112.27,41.28 L 118.73,46.24 L 124.19,55.8 L 116.83,55.11 L 113.53,58.91 L 112.94,53.21 L 106.21,49.96 Z" fill="#F4CD63" stroke="black" stroke-width="1.2" stroke-linecap="round" stroke-linejoin="round"/>
<path d="M 53.65,68.63 L 60.56,67.08 L 61.62,60.08 L 65.66,65.04 L 71.02,65.11 L 67.41,70.36 L 69.18,76.11 L 62.85,74.95 L 59.69,78.91 L 58.51,71.22 L 53.65,68.63 Z" fill="#F4CD63" stroke="black" stroke-width="1.2" stroke-linecap="round" stroke-linejoin="round"/>
<path d="M 86.83,35.61 C 79.22,35.61 72.42,42.21 72.42,50.06 C 72.42,57.92 78.75,63.41 86.36,63.02 C 92.01,62.69 96.21,59.02 97.82,54.7 C 95.7,56.54 93.69,57.13 90.39,57.06 C 83.87,56.81 80.31,51.85 80.31,46.85 C 80.31,42.21 82.91,38.18 86.83,36.61 V 35.61 Z" fill="#F4CD63" stroke="black" stroke-width="1.2" stroke-linecap="round" stroke-linejoin="round"/>
<path d="M 143.59,91.71 C 136.41,91.71 132.51,98.31 132.51,104.11 C 132.51,110.66 137.72,116.59 143.81,116.59 C 150.33,116.59 152.92,111.12 152.92,106.73 C 152.92,100.73 148.99,91.71 143.59,91.71 Z" fill="black"/>
<path d="M 144.77,96.36 C 142.46,96.36 142.19,97.79 142.19,99.01 C 142.19,100.66 143.67,101.75 145.01,101.75 C 146.92,101.75 147.61,100.22 147.61,99.11 C 147.61,97.58 146.38,96.36 144.77,96.36 Z" fill="white"/>
<path d="M 91.28,114.59 C 83.12,114.59 78.12,122.28 78.12,128.14 C 78.12,135.13 83.96,140.16 89.81,140.16 C 97.71,140.16 103.07,133.97 103.07,127.92 C 103.07,121.62 97.71,114.59 91.28,114.59 Z" fill="black"/>
<path d="M 94.14,118.69 C 91.4,118.69 91.09,120.38 91.09,121.54 C 91.09,123.31 92.77,124.26 94.01,124.26 C 96.23,124.26 97.12,122.73 97.12,121.44 C 97.12,119.91 95.88,118.69 94.14,118.69 Z" fill="white"/>
<path d="M 142.08,120.55 C 127.09,120.12 108.06,130.71 107.47,146.1 C 107.05,155.01 112.64,160.91 122.66,160.62 C 134.92,160.23 156.15,150.23 157.33,136.78 C 157.81,128.93 153.41,120.91 142.08,120.55 Z" fill="url(#paint6_linear_1_13)" stroke="black" stroke-width="4" stroke-linecap="round" stroke-linejoin="round"/>
<path d="M 146.11,127.92 C 142.21,127.92 142.49,132.41 142.49,134.11 C 142.49,136.42 144.45,138.32 146.06,137.93 C 149.13,137.13 150.28,134.24 150.28,132.41 C 150.28,130.04 148.71,127.92 146.11,127.92 Z" fill="black"/>
<path d="M 124.39,138.69 C 120.61,137.84 118.95,139.94 118.95,141.51 C 118.95,144.12 121.69,146.42 124.86,146.42 C 127.45,146.42 128.93,144.93 128.61,142.72 C 128.34,140.95 126.81,139.22 124.39,138.69 Z" fill="black"/>
<defs>
<linearGradient id="paint0_linear_1_13" x1="103.067" y1="142.719" x2="103.067" y2="246.46" gradientUnits="userSpaceOnUse">
<stop stop-color="#FEFFEE"/>
<stop offset="1" stop-color="#F7E598"/>
</linearGradient>
<linearGradient id="paint1_linear_1_13" x1="117.37" y1="72.7812" x2="117.37" y2="175.19" gradientUnits="userSpaceOnUse">
<stop stop-color="#FEFFEE"/>
<stop offset="1" stop-color="#F7E598"/>
</linearGradient>
<linearGradient id="paint2_linear_1_13" x1="169.081" y1="65.3799" x2="169.081" y2="92.8052" gradientUnits="userSpaceOnUse">
<stop stop-color="#7A433B"/>
<stop offset="1" stop-color="#A85A4C"/>
</linearGradient>
<linearGradient id="paint3_linear_1_13" x1="99.0291" y1="56.9531" x2="99.0291" y2="137.91" gradientUnits="userSpaceOnUse">
<stop stop-color="#2158A4"/>
<stop offset="1" stop-color="#21498E"/>
</linearGradient>
<linearGradient id="paint4_linear_1_13" x1="42.5317" y1="116.586" x2="42.5317" y2="136.821" gradientUnits="userSpaceOnUse">
<stop stop-color="#7A433B"/>
<stop offset="1" stop-color="#A85A4C"/>
</linearGradient>
<linearGradient id="paint5_linear_1_13" x1="80.2996" y1="5.4375" x2="80.2996" y2="101.109" gradientUnits="userSpaceOnUse">
<stop stop-color="#2158A4"/>
<stop offset="1" stop-color="#21498E"/>
</linearGradient>
<linearGradient id="paint6_linear_1_13" x1="132.463" y1="120.527" x2="132.463" y2="160.641" gradientUnits="userSpaceOnUse">
<stop stop-color="#EBA25D"/>
<stop offset="1" stop-color="#D67E41"/>
</linearGradient>
</defs>
</svg>