<svg xmlns="http://www.w3.org/2000/svg" width="200" height="200" viewBox="0 0 200 200" fill="none">
<rect width="200" height="200" fill="#FEFFFE"/>
<path d="M 195.07,95.8 C 184.91,88.66 171.61,87.13 162.11,87.3 C 176.21,82.71 190.78,71.78 190.97,53.97 C 191.15,37.93 180.23,23.09 161.92,15.18 C 160.12,14.37 158.88,14.48 158.11,15.6 C 157.35,16.72 157.44,18.21 158.06,20.01 C 162.75,33.67 162.02,44.11 154.01,50.01 C 148.91,53.79 142.21,53.79 135.96,53.79 C 127.06,48.12 113.62,46.27 100.02,46.27 C 86.41,46.27 73.02,48.12 64.12,53.79 C 57.87,53.79 51.17,53.79 46.07,50.01 C 38.06,44.11 37.33,34.72 42.02,21.06 C 42.64,19.26 42.73,17.77 41.97,16.65 C 41.21,15.53 39.97,15.07 38.17,15.88 C 19.86,23.79 8.89,37.93 8.89,53.97 C 8.89,69.91 20.94,81.31 37.74,87.12 C 28.36,87.15 15.29,89.04 5.28,95.8 C 3.97,96.73 3.71,98.56 4.53,99.98 C 11.33,111.75 21.21,118.52 33.82,117.91 C 36.01,117.81 38.13,117.31 38.98,117.04 C 36.92,124.11 35.69,130.13 35.79,137.78 C 36.11,156.79 50.48,170.19 73.82,176.09 C 80.15,181.31 86.14,184.01 99.18,184.01 H 99.91 H 100.64 C 111.92,184.01 119.07,181.31 125.4,176.09 C 146.16,170.85 163.85,158.02 164.17,137.78 C 164.28,130.78 162.79,124.56 160.91,117.91 C 162.42,118.33 164.71,118.77 166.53,118.77 C 178.41,118.77 188.82,110.91 195.41,99.22 C 196.31,97.86 196.28,96.62 195.07,95.8 Z" fill="black"/>
<path d="M 35.47,22.3 C 25.69,27.92 13.87,37.96 13.87,53.81 C 13.87,69.17 27.12,79.99 47.42,82.96 L 48.2,82.94 C 50.21,74.11 51.86,67.66 56.78,61.72 C 49.99,61.19 45.27,58.93 41.08,55.46 C 32.12,48.22 31.21,38.16 35.47,26.17 V 22.3 Z" fill="#FEFFCC"/>
<path d="M 32.27,25.13 C 26.91,30.18 22.33,37.21 22.33,45.95 C 22.33,58.92 32.79,69.12 49.99,71.62 L 50.21,71.61 C 50.74,69.71 52.12,66.16 55.19,61.71 C 48.4,61.17 43.68,58.92 39.49,55.45 C 31.21,48.75 30.32,38.34 32.27,29.98 V 25.13 Z" fill="#FEF9C8"/>
<path d="M 165.35,22.3 C 175.13,27.92 185.37,37.96 185.37,53.81 C 185.37,68.48 172.12,79.99 152.34,82.96 L 152.18,82.94 C 150.17,74.11 148.52,67.66 143.6,61.72 C 150.39,61.19 155.11,58.93 159.3,55.46 C 167.31,48.68 168.61,38.16 165.35,26.17 V 22.3 Z" fill="#FEFFCC"/>
<path d="M 167.98,24.62 C 174.17,29.98 176.88,36.16 176.88,45.95 C 176.88,58.92 166.41,69.63 149.21,71.62 L 149.59,71.61 C 150.12,73.51 150.9,76.73 151.71,81.69 L 152.34,82.96 C 168.72,80.51 185.37,70.18 185.37,53.81 C 185.37,41.81 177.63,30.81 167.98,24.62 Z" fill="#FEF9C8"/>
<path d="M 154.11,92.04 C 161.81,91.51 171.09,91.88 176.71,94.99 C 171.04,96.11 165.14,99.63 157.13,103.21 L 154.11,92.04 Z" fill="#46545B"/>
<path d="M 44.96,92.04 C 37.26,91.51 31.06,91.61 24.87,93.68 C 30.54,94.8 35.18,98.78 43.19,102.36 L 44.96,92.04 Z" fill="#46545B"/>
<path d="M 9.22,97.71 C 14.49,95.26 19.81,95.52 24.92,97.31 C 31.11,99.58 36.21,103.41 41.03,105.06 L 39.81,110.02 C 30.23,114.16 17.28,111.71 9.22,97.71 Z" fill="#F9C59A"/>
<path d="M 18.99,96.11 C 21.06,104.12 26.38,110.12 38.98,109.3 L 39.81,110.02 C 31.48,113.74 18.37,112.02 9.22,97.71 C 12.24,96.31 15.71,96.05 18.99,96.11 Z" fill="#F09D6E"/>
<path d="M 190.37,97.71 C 185.11,95.26 181.23,95.73 176.13,97.31 C 169.94,99.29 166.11,102.91 159.22,105.06 L 160.44,110.02 C 170.02,114.16 182.31,111.71 190.37,97.71 Z" fill="#F9C59A"/>
<path d="M 181.61,96.11 C 179.54,104.12 174.22,110.12 161.62,109.3 L 160.44,110.02 C 168.77,113.74 181.22,111.39 190.37,97.08 C 187.35,96.05 185.22,96.05 181.61,96.11 Z" fill="#F09D6E"/>
<path d="M 151.12,98.83 C 146.58,82.29 146.21,67.34 132.12,58.16 C 123.16,53.21 109.45,51.61 99.91,51.61 C 90.37,51.61 76.11,53.21 68.21,58.16 C 55.61,66.41 54.75,77.81 50.21,94.91 L 44.85,113.06 C 42.25,121.81 41.08,127.49 41.34,137.78 C 41.66,149.99 50.9,161.65 66.06,167.45 C 65.14,165.19 64.62,163.29 64.62,160.22 C 64.62,149.94 72.79,135.09 86.45,135.09 C 92.12,135.09 94.29,136.16 99.91,136.16 C 105.53,136.16 106.92,135.09 113.36,135.09 C 125.71,135.09 134.9,148.75 134.9,160.22 C 134.9,163.08 134.48,165.14 133.75,167.45 C 147.13,162.29 157.54,152.01 157.79,137.78 C 157.95,128.05 154.93,119.31 152.71,111.6 L 151.12,98.83 Z" fill="#FEFFFE"/>
<path d="M 100.01,178.11 C 109.6,178.11 115.11,175.89 118.68,173.49 C 111.78,172.91 105.93,170.46 99.85,170.46 C 93.41,170.46 88.92,172.73 81.73,173.75 C 86.42,176.77 91.06,178.11 100.01,178.11 Z" fill="#F09D6E"/>
<path d="M 113.05,138.97 C 107.01,138.97 105.66,140.09 99.62,140.09 C 93.58,140.09 92.66,138.97 86.11,138.97 C 75.24,138.97 69.62,149.99 69.62,159.12 C 69.62,164.74 73.91,169.18 77.12,169.18 C 85.13,169.18 91.86,165.3 99.62,165.3 C 106.81,165.3 113.25,169.18 122.21,169.18 C 127.21,169.18 130.68,164.12 130.68,159.12 C 130.68,150.43 124.34,138.97 113.05,138.97 Z" fill="#FEF9C8"/>
<path d="M 130.38,156.1 C 128.41,162.6 125.14,165.19 119.1,165.19 C 112.1,165.19 106.01,162.44 98.92,162.44 C 91.16,162.44 86.73,165.19 78.72,165.19 C 73.72,165.19 71.06,161.26 69.71,156.1 L 69.31,159.12 C 69.31,164.74 73.6,169.18 76.81,169.18 C 84.82,169.18 91.55,165.3 99.31,165.3 C 106.5,165.3 112.94,169.18 121.9,169.18 C 126.9,169.18 130.73,164.12 130.73,159.12 L 130.38,156.1 Z" fill="#F09D6E"/>
<path d="M 115.93,145.16 C 111.78,145.16 108.61,151.06 108.61,154.79 C 108.61,156.86 109.39,157.34 110.12,157.34 C 111.24,157.34 112.63,154.48 115.19,154.48 C 118.61,154.48 119.49,150.91 119.49,148.84 C 119.49,146.77 118.15,145.16 115.93,145.16 Z" fill="black"/>
<path d="M 83.51,145.16 C 87.66,145.16 90.82,151.06 90.82,154.79 C 90.82,156.86 89.6,157.34 88.92,157.34 C 87.8,157.34 87.18,154.48 83.71,154.48 C 80.29,154.48 79.96,150.91 79.96,148.84 C 79.96,146.77 81.29,145.16 83.51,145.16 Z" fill="black"/>
<path d="M 130.98,93.06 C 120.37,93.06 117.61,94.86 110.93,94.86 H 90.11 C 83.43,94.86 81.78,93.06 70.59,93.06 C 58.09,93.06 50.03,95.08 48.71,104.81 C 47.79,112.01 48.91,133.33 67.74,133.33 C 85.23,133.33 92.73,118.21 95.19,107.75 C 95.81,105.05 98.41,105.05 99.13,105.05 C 99.86,105.05 102.31,105.05 103.19,107.75 C 106.05,117.69 112.73,133.33 131.56,133.33 C 149.05,133.33 152.07,121.12 152.07,107.23 C 152.07,97.13 145.73,93.06 130.98,93.06 Z" fill="black"/>
<path d="M 92.38,97.03 H 106.9 C 105.15,98.15 103.45,99.64 102.42,101.44 C 101.11,100.91 100.23,100.86 99.11,100.86 C 97.99,100.86 97.26,100.86 96.04,101.44 C 95.01,99.17 93.84,98.15 92.38,97.03 Z" fill="#FEFFFE"/>
<path d="M 66.01,98.94 C 61.62,99.51 52.77,99.72 52.77,107.91 C 52.77,110.51 53.54,112.01 54.47,112.01 C 56.12,112.01 56.38,105.72 62.05,104.79 C 67.11,103.97 67.68,102.06 67.68,100.21 C 67.68,99.14 67.06,98.78 66.01,98.94 Z" fill="#BCBCBC"/>
<path d="M 123.05,98.73 C 118.66,99.3 109.81,99.51 110.38,107.91 C 110.22,110.61 110.69,111.49 111.62,111.49 C 113.27,111.49 113.94,105.25 119.05,104.33 C 123.79,103.46 124.72,101.23 124.72,99.91 C 124.72,98.99 124.31,98.57 123.05,98.73 Z" fill="#BCBCBC"/>
</svg>